<mxfile host="app.diagrams.net" modified="2021-10-24T21:30:11.843Z" agent="5.0 (Windows NT 10.0; Win64; x64) AppleWebKit/537.36 (KHTML, like Gecko) Chrome/94.0.4606.81 Safari/537.36" version="15.5.9" etag="tWzVNyhZAwjtFL1BZw61" type="github" pages="3">
  <diagram id="lt4WknSjMBYcSYlyQiBh" name="Page-1">
    <mxGraphModel dx="879" dy="519" grid="1" gridSize="10" guides="1" tooltips="1" connect="1" arrows="1" fold="1" page="1" pageScale="1" pageWidth="827" pageHeight="1169" math="0" shadow="0">
      <root>
        <mxCell id="0" />
        <mxCell id="1" parent="0" />
        <mxCell id="WFsqFu4l9Cx14EU4Y3KX-20" value="" style="edgeStyle=orthogonalEdgeStyle;rounded=0;orthogonalLoop=1;jettySize=auto;html=1;" parent="1" target="WFsqFu4l9Cx14EU4Y3KX-15" edge="1">
          <mxGeometry relative="1" as="geometry">
            <mxPoint x="150" y="300" as="sourcePoint" />
          </mxGeometry>
        </mxCell>
        <mxCell id="WFsqFu4l9Cx14EU4Y3KX-1" value="Actor" style="shape=umlActor;verticalLabelPosition=bottom;verticalAlign=top;html=1;outlineConnect=0;fillColor=#d5e8d4;strokeColor=#82b366;" parent="1" vertex="1">
          <mxGeometry x="120" y="270" width="30" height="60" as="geometry" />
        </mxCell>
        <mxCell id="WFsqFu4l9Cx14EU4Y3KX-19" value="" style="edgeStyle=orthogonalEdgeStyle;rounded=0;orthogonalLoop=1;jettySize=auto;html=1;" parent="1" source="WFsqFu4l9Cx14EU4Y3KX-2" target="WFsqFu4l9Cx14EU4Y3KX-16" edge="1">
          <mxGeometry relative="1" as="geometry" />
        </mxCell>
        <mxCell id="WFsqFu4l9Cx14EU4Y3KX-2" value="Actor" style="shape=umlActor;verticalLabelPosition=bottom;verticalAlign=top;html=1;outlineConnect=0;fillColor=#f8cecc;strokeColor=#b85450;" parent="1" vertex="1">
          <mxGeometry x="120" y="380" width="30" height="60" as="geometry" />
        </mxCell>
        <mxCell id="WFsqFu4l9Cx14EU4Y3KX-18" value="" style="edgeStyle=orthogonalEdgeStyle;rounded=0;orthogonalLoop=1;jettySize=auto;html=1;" parent="1" source="WFsqFu4l9Cx14EU4Y3KX-3" target="WFsqFu4l9Cx14EU4Y3KX-17" edge="1">
          <mxGeometry relative="1" as="geometry" />
        </mxCell>
        <mxCell id="WFsqFu4l9Cx14EU4Y3KX-3" value="Actor" style="shape=umlActor;verticalLabelPosition=bottom;verticalAlign=top;html=1;outlineConnect=0;fillColor=#e1d5e7;strokeColor=#9673a6;" parent="1" vertex="1">
          <mxGeometry x="120" y="500" width="30" height="60" as="geometry" />
        </mxCell>
        <mxCell id="WFsqFu4l9Cx14EU4Y3KX-7" value="" style="edgeStyle=orthogonalEdgeStyle;rounded=0;orthogonalLoop=1;jettySize=auto;html=1;" parent="1" source="WFsqFu4l9Cx14EU4Y3KX-4" target="WFsqFu4l9Cx14EU4Y3KX-5" edge="1">
          <mxGeometry relative="1" as="geometry" />
        </mxCell>
        <mxCell id="WFsqFu4l9Cx14EU4Y3KX-4" value="PÁGINA" style="ellipse;whiteSpace=wrap;html=1;aspect=fixed;" parent="1" vertex="1">
          <mxGeometry x="50" y="20" width="80" height="80" as="geometry" />
        </mxCell>
        <mxCell id="WFsqFu4l9Cx14EU4Y3KX-21" value="" style="edgeStyle=orthogonalEdgeStyle;rounded=0;orthogonalLoop=1;jettySize=auto;html=1;" parent="1" source="WFsqFu4l9Cx14EU4Y3KX-5" target="WFsqFu4l9Cx14EU4Y3KX-15" edge="1">
          <mxGeometry relative="1" as="geometry" />
        </mxCell>
        <mxCell id="WFsqFu4l9Cx14EU4Y3KX-5" value="GITHUB" style="shape=parallelogram;perimeter=parallelogramPerimeter;whiteSpace=wrap;html=1;fixedSize=1;" parent="1" vertex="1">
          <mxGeometry x="280" y="20" width="120" height="60" as="geometry" />
        </mxCell>
        <mxCell id="WFsqFu4l9Cx14EU4Y3KX-6" value="AZURE" style="shape=parallelogram;perimeter=parallelogramPerimeter;whiteSpace=wrap;html=1;fixedSize=1;" parent="1" vertex="1">
          <mxGeometry x="500" y="20" width="120" height="60" as="geometry" />
        </mxCell>
        <mxCell id="WFsqFu4l9Cx14EU4Y3KX-10" value="" style="edgeStyle=orthogonalEdgeStyle;rounded=0;orthogonalLoop=1;jettySize=auto;html=1;" parent="1" source="WFsqFu4l9Cx14EU4Y3KX-9" edge="1">
          <mxGeometry relative="1" as="geometry">
            <mxPoint x="120" y="300" as="targetPoint" />
          </mxGeometry>
        </mxCell>
        <mxCell id="WFsqFu4l9Cx14EU4Y3KX-9" value="CLIENTE" style="text;html=1;strokeColor=none;fillColor=none;align=center;verticalAlign=middle;whiteSpace=wrap;rounded=0;" parent="1" vertex="1">
          <mxGeometry x="20" y="285" width="60" height="30" as="geometry" />
        </mxCell>
        <mxCell id="WFsqFu4l9Cx14EU4Y3KX-12" value="" style="edgeStyle=orthogonalEdgeStyle;rounded=0;orthogonalLoop=1;jettySize=auto;html=1;" parent="1" source="WFsqFu4l9Cx14EU4Y3KX-11" target="WFsqFu4l9Cx14EU4Y3KX-2" edge="1">
          <mxGeometry relative="1" as="geometry" />
        </mxCell>
        <mxCell id="WFsqFu4l9Cx14EU4Y3KX-11" value="VENDEDOR" style="text;html=1;strokeColor=none;fillColor=none;align=center;verticalAlign=middle;whiteSpace=wrap;rounded=0;" parent="1" vertex="1">
          <mxGeometry x="10" y="410" width="60" height="30" as="geometry" />
        </mxCell>
        <mxCell id="WFsqFu4l9Cx14EU4Y3KX-14" value="" style="edgeStyle=orthogonalEdgeStyle;rounded=0;orthogonalLoop=1;jettySize=auto;html=1;" parent="1" source="WFsqFu4l9Cx14EU4Y3KX-13" target="WFsqFu4l9Cx14EU4Y3KX-3" edge="1">
          <mxGeometry relative="1" as="geometry" />
        </mxCell>
        <mxCell id="WFsqFu4l9Cx14EU4Y3KX-13" value="PROVEEDOR" style="text;html=1;strokeColor=none;fillColor=none;align=center;verticalAlign=middle;whiteSpace=wrap;rounded=0;" parent="1" vertex="1">
          <mxGeometry x="10" y="515" width="60" height="30" as="geometry" />
        </mxCell>
        <mxCell id="WFsqFu4l9Cx14EU4Y3KX-15" value="PRINCIPAL" style="whiteSpace=wrap;html=1;aspect=fixed;" parent="1" vertex="1">
          <mxGeometry x="290" y="300" width="80" height="80" as="geometry" />
        </mxCell>
        <mxCell id="WFsqFu4l9Cx14EU4Y3KX-26" value="" style="edgeStyle=orthogonalEdgeStyle;rounded=0;orthogonalLoop=1;jettySize=auto;html=1;" parent="1" source="WFsqFu4l9Cx14EU4Y3KX-16" target="WFsqFu4l9Cx14EU4Y3KX-17" edge="1">
          <mxGeometry relative="1" as="geometry" />
        </mxCell>
        <mxCell id="WFsqFu4l9Cx14EU4Y3KX-16" value="PRINCIPAL" style="whiteSpace=wrap;html=1;aspect=fixed;" parent="1" vertex="1">
          <mxGeometry x="280" y="410" width="80" height="80" as="geometry" />
        </mxCell>
        <mxCell id="WFsqFu4l9Cx14EU4Y3KX-33" value="" style="edgeStyle=orthogonalEdgeStyle;rounded=0;orthogonalLoop=1;jettySize=auto;html=1;" parent="1" source="WFsqFu4l9Cx14EU4Y3KX-17" target="WFsqFu4l9Cx14EU4Y3KX-32" edge="1">
          <mxGeometry relative="1" as="geometry" />
        </mxCell>
        <mxCell id="WFsqFu4l9Cx14EU4Y3KX-17" value="PRINCIPAL" style="whiteSpace=wrap;html=1;aspect=fixed;" parent="1" vertex="1">
          <mxGeometry x="280" y="530" width="80" height="80" as="geometry" />
        </mxCell>
        <mxCell id="WFsqFu4l9Cx14EU4Y3KX-24" value="" style="endArrow=classic;html=1;rounded=0;entryX=1;entryY=0.25;entryDx=0;entryDy=0;exitX=0.433;exitY=1.05;exitDx=0;exitDy=0;exitPerimeter=0;" parent="1" source="WFsqFu4l9Cx14EU4Y3KX-6" target="WFsqFu4l9Cx14EU4Y3KX-15" edge="1">
          <mxGeometry width="50" height="50" relative="1" as="geometry">
            <mxPoint x="460" y="175" as="sourcePoint" />
            <mxPoint x="390" y="150" as="targetPoint" />
            <Array as="points">
              <mxPoint x="430" y="120" />
            </Array>
          </mxGeometry>
        </mxCell>
        <mxCell id="WFsqFu4l9Cx14EU4Y3KX-27" value="SE GUARDAN ACTUALIZACIONES" style="text;html=1;strokeColor=none;fillColor=none;align=center;verticalAlign=middle;whiteSpace=wrap;rounded=0;" parent="1" vertex="1">
          <mxGeometry x="420" y="20" width="60" height="30" as="geometry" />
        </mxCell>
        <mxCell id="BZxxm2XhpbZAr5s357pQ-2" value="" style="edgeStyle=orthogonalEdgeStyle;rounded=0;orthogonalLoop=1;jettySize=auto;html=1;" parent="1" source="WFsqFu4l9Cx14EU4Y3KX-32" target="BZxxm2XhpbZAr5s357pQ-1" edge="1">
          <mxGeometry relative="1" as="geometry" />
        </mxCell>
        <mxCell id="BZxxm2XhpbZAr5s357pQ-4" value="" style="edgeStyle=orthogonalEdgeStyle;rounded=0;orthogonalLoop=1;jettySize=auto;html=1;" parent="1" source="WFsqFu4l9Cx14EU4Y3KX-32" target="BZxxm2XhpbZAr5s357pQ-3" edge="1">
          <mxGeometry relative="1" as="geometry" />
        </mxCell>
        <mxCell id="WFsqFu4l9Cx14EU4Y3KX-32" value="ZONA DE PROVEEDORES" style="whiteSpace=wrap;html=1;aspect=fixed;" parent="1" vertex="1">
          <mxGeometry x="280" y="670" width="90" height="90" as="geometry" />
        </mxCell>
        <mxCell id="WFsqFu4l9Cx14EU4Y3KX-38" value="REPOSITORIOS" style="text;html=1;strokeColor=none;fillColor=none;align=center;verticalAlign=middle;whiteSpace=wrap;rounded=0;" parent="1" vertex="1">
          <mxGeometry x="160" y="20" width="60" height="30" as="geometry" />
        </mxCell>
        <mxCell id="WFsqFu4l9Cx14EU4Y3KX-44" value="" style="edgeStyle=orthogonalEdgeStyle;rounded=0;orthogonalLoop=1;jettySize=auto;html=1;" parent="1" source="WFsqFu4l9Cx14EU4Y3KX-41" target="WFsqFu4l9Cx14EU4Y3KX-43" edge="1">
          <mxGeometry relative="1" as="geometry" />
        </mxCell>
        <mxCell id="WFsqFu4l9Cx14EU4Y3KX-41" value="AZURE&amp;nbsp;&lt;br&gt;DEVOPS" style="shape=parallelogram;perimeter=parallelogramPerimeter;whiteSpace=wrap;html=1;fixedSize=1;" parent="1" vertex="1">
          <mxGeometry x="700" y="10" width="120" height="60" as="geometry" />
        </mxCell>
        <mxCell id="WFsqFu4l9Cx14EU4Y3KX-46" value="" style="edgeStyle=orthogonalEdgeStyle;rounded=0;orthogonalLoop=1;jettySize=auto;html=1;" parent="1" source="WFsqFu4l9Cx14EU4Y3KX-43" target="WFsqFu4l9Cx14EU4Y3KX-45" edge="1">
          <mxGeometry relative="1" as="geometry" />
        </mxCell>
        <mxCell id="WFsqFu4l9Cx14EU4Y3KX-43" value="GUARDADO DE TAREAS" style="whiteSpace=wrap;html=1;" parent="1" vertex="1">
          <mxGeometry x="700" y="160" width="120" height="60" as="geometry" />
        </mxCell>
        <mxCell id="WFsqFu4l9Cx14EU4Y3KX-45" value="GUARDADO DE CODIGO&amp;nbsp;" style="whiteSpace=wrap;html=1;" parent="1" vertex="1">
          <mxGeometry x="700" y="270" width="120" height="60" as="geometry" />
        </mxCell>
        <mxCell id="WFsqFu4l9Cx14EU4Y3KX-47" value="CONTACTANOS" style="rounded=1;whiteSpace=wrap;html=1;" parent="1" vertex="1">
          <mxGeometry x="460" y="130" width="100" height="50" as="geometry" />
        </mxCell>
        <mxCell id="WFsqFu4l9Cx14EU4Y3KX-48" value="SUSCRIBETE&amp;nbsp;" style="rounded=1;whiteSpace=wrap;html=1;arcSize=31;" parent="1" vertex="1">
          <mxGeometry x="460" y="190" width="100" height="40" as="geometry" />
        </mxCell>
        <mxCell id="nGMiJVZP2MHjZeXoKgFG-3" value="" style="edgeStyle=orthogonalEdgeStyle;rounded=0;orthogonalLoop=1;jettySize=auto;html=1;" parent="1" source="WFsqFu4l9Cx14EU4Y3KX-49" target="nGMiJVZP2MHjZeXoKgFG-2" edge="1">
          <mxGeometry relative="1" as="geometry" />
        </mxCell>
        <mxCell id="WFsqFu4l9Cx14EU4Y3KX-49" value="ZONA DE PRODUCTOS" style="rounded=1;whiteSpace=wrap;html=1;" parent="1" vertex="1">
          <mxGeometry x="450" y="450" width="120" height="60" as="geometry" />
        </mxCell>
        <mxCell id="WFsqFu4l9Cx14EU4Y3KX-50" value="ZONA DE TIENDAS" style="rounded=1;whiteSpace=wrap;html=1;" parent="1" vertex="1">
          <mxGeometry x="414" y="540" width="120" height="60" as="geometry" />
        </mxCell>
        <mxCell id="WFsqFu4l9Cx14EU4Y3KX-51" value="" style="endArrow=classic;html=1;rounded=0;entryX=0;entryY=0.5;entryDx=0;entryDy=0;exitX=1.043;exitY=0.414;exitDx=0;exitDy=0;exitPerimeter=0;" parent="1" source="WFsqFu4l9Cx14EU4Y3KX-15" target="WFsqFu4l9Cx14EU4Y3KX-47" edge="1">
          <mxGeometry width="50" height="50" relative="1" as="geometry">
            <mxPoint x="380" y="250" as="sourcePoint" />
            <mxPoint x="440" y="280" as="targetPoint" />
            <Array as="points" />
          </mxGeometry>
        </mxCell>
        <mxCell id="WFsqFu4l9Cx14EU4Y3KX-52" value="" style="endArrow=classic;html=1;rounded=0;exitX=1;exitY=0.5;exitDx=0;exitDy=0;" parent="1" source="WFsqFu4l9Cx14EU4Y3KX-15" target="WFsqFu4l9Cx14EU4Y3KX-48" edge="1">
          <mxGeometry width="50" height="50" relative="1" as="geometry">
            <mxPoint x="390" y="330" as="sourcePoint" />
            <mxPoint x="440" y="280" as="targetPoint" />
          </mxGeometry>
        </mxCell>
        <mxCell id="WFsqFu4l9Cx14EU4Y3KX-53" value="" style="endArrow=classic;html=1;rounded=0;entryX=0;entryY=0.5;entryDx=0;entryDy=0;exitX=1;exitY=0.25;exitDx=0;exitDy=0;" parent="1" source="WFsqFu4l9Cx14EU4Y3KX-16" target="WFsqFu4l9Cx14EU4Y3KX-49" edge="1">
          <mxGeometry width="50" height="50" relative="1" as="geometry">
            <mxPoint x="390" y="330" as="sourcePoint" />
            <mxPoint x="440" y="280" as="targetPoint" />
          </mxGeometry>
        </mxCell>
        <mxCell id="WFsqFu4l9Cx14EU4Y3KX-54" value="" style="endArrow=classic;html=1;rounded=0;entryX=0;entryY=0.25;entryDx=0;entryDy=0;exitX=1.013;exitY=0.363;exitDx=0;exitDy=0;exitPerimeter=0;" parent="1" source="WFsqFu4l9Cx14EU4Y3KX-16" target="WFsqFu4l9Cx14EU4Y3KX-50" edge="1">
          <mxGeometry width="50" height="50" relative="1" as="geometry">
            <mxPoint x="390" y="330" as="sourcePoint" />
            <mxPoint x="440" y="280" as="targetPoint" />
          </mxGeometry>
        </mxCell>
        <mxCell id="WFsqFu4l9Cx14EU4Y3KX-55" value="" style="endArrow=classic;html=1;rounded=0;entryX=0;entryY=0;entryDx=0;entryDy=0;exitX=0.25;exitY=1;exitDx=0;exitDy=0;" parent="1" source="WFsqFu4l9Cx14EU4Y3KX-5" target="WFsqFu4l9Cx14EU4Y3KX-16" edge="1">
          <mxGeometry width="50" height="50" relative="1" as="geometry">
            <mxPoint x="390" y="210" as="sourcePoint" />
            <mxPoint x="440" y="160" as="targetPoint" />
            <Array as="points">
              <mxPoint x="250" y="180" />
              <mxPoint x="250" y="270" />
            </Array>
          </mxGeometry>
        </mxCell>
        <mxCell id="WFsqFu4l9Cx14EU4Y3KX-56" value="" style="endArrow=classic;startArrow=classic;html=1;rounded=0;exitX=1;exitY=0.75;exitDx=0;exitDy=0;entryX=0;entryY=0.5;entryDx=0;entryDy=0;" parent="1" source="WFsqFu4l9Cx14EU4Y3KX-5" target="WFsqFu4l9Cx14EU4Y3KX-6" edge="1">
          <mxGeometry width="50" height="50" relative="1" as="geometry">
            <mxPoint x="390" y="210" as="sourcePoint" />
            <mxPoint x="490" y="50" as="targetPoint" />
          </mxGeometry>
        </mxCell>
        <mxCell id="WFsqFu4l9Cx14EU4Y3KX-58" value="" style="endArrow=classic;startArrow=classic;html=1;rounded=0;entryX=0;entryY=0.5;entryDx=0;entryDy=0;" parent="1" source="WFsqFu4l9Cx14EU4Y3KX-6" target="WFsqFu4l9Cx14EU4Y3KX-41" edge="1">
          <mxGeometry width="50" height="50" relative="1" as="geometry">
            <mxPoint x="390" y="210" as="sourcePoint" />
            <mxPoint x="440" y="160" as="targetPoint" />
          </mxGeometry>
        </mxCell>
        <mxCell id="wIZikBdHaVdcza7EXkOo-2" value="Realize una barra de menu para poder enlazar las paginas realizadas por mis compañeros." style="whiteSpace=wrap;html=1;rounded=1;" parent="1" vertex="1">
          <mxGeometry x="470" y="300" width="140" height="60" as="geometry" />
        </mxCell>
        <mxCell id="nGMiJVZP2MHjZeXoKgFG-2" value="listado de productos para conocer la opinión del cliente&amp;nbsp;" style="rounded=0;whiteSpace=wrap;html=1;" parent="1" vertex="1">
          <mxGeometry x="680" y="470" width="120" height="60" as="geometry" />
        </mxCell>
        <mxCell id="nGMiJVZP2MHjZeXoKgFG-4" value="en la barra de menú agregar un apartado de categoría de productos&amp;nbsp;" style="rounded=0;whiteSpace=wrap;html=1;" parent="1" vertex="1">
          <mxGeometry x="680" y="545" width="120" height="60" as="geometry" />
        </mxCell>
        <mxCell id="nGMiJVZP2MHjZeXoKgFG-5" value="" style="endArrow=classic;html=1;rounded=0;entryX=0;entryY=0.5;entryDx=0;entryDy=0;exitX=0.5;exitY=1;exitDx=0;exitDy=0;" parent="1" source="WFsqFu4l9Cx14EU4Y3KX-49" target="nGMiJVZP2MHjZeXoKgFG-4" edge="1">
          <mxGeometry width="50" height="50" relative="1" as="geometry">
            <mxPoint x="390" y="560" as="sourcePoint" />
            <mxPoint x="440" y="510" as="targetPoint" />
            <Array as="points">
              <mxPoint x="600" y="530" />
              <mxPoint x="600" y="575" />
            </Array>
          </mxGeometry>
        </mxCell>
        <mxCell id="0-U3Hr3d8cB6WN6imELV-3" value="REGISTRATE" style="rounded=1;whiteSpace=wrap;html=1;" parent="1" vertex="1">
          <mxGeometry x="510" y="245" width="100" height="40" as="geometry" />
        </mxCell>
        <mxCell id="0-U3Hr3d8cB6WN6imELV-7" value="" style="endArrow=classic;html=1;rounded=0;exitX=1.004;exitY=0.6;exitDx=0;exitDy=0;exitPerimeter=0;entryX=0;entryY=0.5;entryDx=0;entryDy=0;" parent="1" source="WFsqFu4l9Cx14EU4Y3KX-15" target="0-U3Hr3d8cB6WN6imELV-3" edge="1">
          <mxGeometry width="50" height="50" relative="1" as="geometry">
            <mxPoint x="390" y="180" as="sourcePoint" />
            <mxPoint x="440" y="130" as="targetPoint" />
          </mxGeometry>
        </mxCell>
        <mxCell id="0-U3Hr3d8cB6WN6imELV-8" value="" style="endArrow=classic;html=1;rounded=0;exitX=1;exitY=0.75;exitDx=0;exitDy=0;entryX=0;entryY=0.5;entryDx=0;entryDy=0;" parent="1" source="WFsqFu4l9Cx14EU4Y3KX-15" target="wIZikBdHaVdcza7EXkOo-2" edge="1">
          <mxGeometry width="50" height="50" relative="1" as="geometry">
            <mxPoint x="390" y="290" as="sourcePoint" />
            <mxPoint x="440" y="240" as="targetPoint" />
          </mxGeometry>
        </mxCell>
        <mxCell id="0-U3Hr3d8cB6WN6imELV-9" value="Dentro de la pagina principal realizare un efecto hover para la descripcion de las imagenes&amp;nbsp;&amp;nbsp;" style="rounded=1;whiteSpace=wrap;html=1;" parent="1" vertex="1">
          <mxGeometry x="460" y="370" width="150" height="60" as="geometry" />
        </mxCell>
        <mxCell id="0-U3Hr3d8cB6WN6imELV-10" value="" style="endArrow=classic;html=1;rounded=0;entryX=0;entryY=0.5;entryDx=0;entryDy=0;" parent="1" target="0-U3Hr3d8cB6WN6imELV-9" edge="1">
          <mxGeometry width="50" height="50" relative="1" as="geometry">
            <mxPoint x="370" y="360" as="sourcePoint" />
            <mxPoint x="440" y="320" as="targetPoint" />
          </mxGeometry>
        </mxCell>
        <mxCell id="rToGuxeW-YLUI87AxBJO-1" value="realice una barra de menú con sus respectivos enlaces a tiendas." style="rounded=1;whiteSpace=wrap;html=1;" parent="1" vertex="1">
          <mxGeometry x="570" y="610" width="120" height="60" as="geometry" />
        </mxCell>
        <mxCell id="rToGuxeW-YLUI87AxBJO-2" value="" style="endArrow=classic;html=1;rounded=0;exitX=1;exitY=1;exitDx=0;exitDy=0;entryX=0;entryY=0.5;entryDx=0;entryDy=0;" parent="1" source="WFsqFu4l9Cx14EU4Y3KX-50" target="rToGuxeW-YLUI87AxBJO-1" edge="1">
          <mxGeometry width="50" height="50" relative="1" as="geometry">
            <mxPoint x="390" y="660" as="sourcePoint" />
            <mxPoint x="440" y="610" as="targetPoint" />
          </mxGeometry>
        </mxCell>
        <mxCell id="rToGuxeW-YLUI87AxBJO-3" value="descripciones de las tiendas con sus imágenes de referencia." style="rounded=1;whiteSpace=wrap;html=1;" parent="1" vertex="1">
          <mxGeometry x="560" y="680" width="120" height="60" as="geometry" />
        </mxCell>
        <mxCell id="rToGuxeW-YLUI87AxBJO-4" value="" style="endArrow=classic;html=1;rounded=0;exitX=0.5;exitY=1;exitDx=0;exitDy=0;entryX=0;entryY=0.25;entryDx=0;entryDy=0;" parent="1" source="WFsqFu4l9Cx14EU4Y3KX-50" target="rToGuxeW-YLUI87AxBJO-3" edge="1">
          <mxGeometry width="50" height="50" relative="1" as="geometry">
            <mxPoint x="390" y="640" as="sourcePoint" />
            <mxPoint x="440" y="590" as="targetPoint" />
          </mxGeometry>
        </mxCell>
        <mxCell id="BZxxm2XhpbZAr5s357pQ-1" value="Lugar donde los vendedores podrán ver proveedores para sus negocios" style="rounded=0;whiteSpace=wrap;html=1;" parent="1" vertex="1">
          <mxGeometry x="265" y="800" width="120" height="60" as="geometry" />
        </mxCell>
        <mxCell id="BZxxm2XhpbZAr5s357pQ-3" value="se realizada un apartado para favoritos, asi sera más facil identificar a las proveedores de tu agrado" style="whiteSpace=wrap;html=1;" parent="1" vertex="1">
          <mxGeometry x="95" y="685" width="120" height="105" as="geometry" />
        </mxCell>
      </root>
    </mxGraphModel>
  </diagram>
  <diagram id="8jXXptXhwmPjv9IqPebN" name="Page-2">
    <mxGraphModel dx="879" dy="1688" grid="1" gridSize="10" guides="1" tooltips="1" connect="1" arrows="1" fold="1" page="1" pageScale="1" pageWidth="827" pageHeight="1169" math="0" shadow="0">
      <root>
        <mxCell id="6It77lHutjvIm_W-3JPP-0" />
        <mxCell id="6It77lHutjvIm_W-3JPP-1" parent="6It77lHutjvIm_W-3JPP-0" />
        <mxCell id="c4MaFaqeXAwnwck2cTiM-13" style="edgeStyle=orthogonalEdgeStyle;rounded=0;orthogonalLoop=1;jettySize=auto;html=1;entryX=0;entryY=0.5;entryDx=0;entryDy=0;" parent="6It77lHutjvIm_W-3JPP-1" source="c4MaFaqeXAwnwck2cTiM-0" target="c4MaFaqeXAwnwck2cTiM-4" edge="1">
          <mxGeometry relative="1" as="geometry" />
        </mxCell>
        <mxCell id="c4MaFaqeXAwnwck2cTiM-0" value="Actor" style="shape=umlActor;verticalLabelPosition=bottom;verticalAlign=top;html=1;outlineConnect=0;" parent="6It77lHutjvIm_W-3JPP-1" vertex="1">
          <mxGeometry x="60" y="-60" width="40" height="80" as="geometry" />
        </mxCell>
        <mxCell id="c4MaFaqeXAwnwck2cTiM-4" value="Registrar requerimientos para publicitar sus productos&amp;nbsp;" style="rounded=1;whiteSpace=wrap;html=1;" parent="6It77lHutjvIm_W-3JPP-1" vertex="1">
          <mxGeometry x="190" y="-190" width="120" height="60" as="geometry" />
        </mxCell>
        <mxCell id="c4MaFaqeXAwnwck2cTiM-19" style="edgeStyle=orthogonalEdgeStyle;rounded=0;orthogonalLoop=1;jettySize=auto;html=1;exitX=0;exitY=1;exitDx=0;exitDy=0;entryX=0.5;entryY=0;entryDx=0;entryDy=0;" parent="6It77lHutjvIm_W-3JPP-1" source="c4MaFaqeXAwnwck2cTiM-5" target="c4MaFaqeXAwnwck2cTiM-6" edge="1">
          <mxGeometry relative="1" as="geometry" />
        </mxCell>
        <mxCell id="c4MaFaqeXAwnwck2cTiM-5" value="validar documentación del solicitante&amp;nbsp;" style="rounded=1;whiteSpace=wrap;html=1;" parent="6It77lHutjvIm_W-3JPP-1" vertex="1">
          <mxGeometry x="470" y="-190" width="120" height="60" as="geometry" />
        </mxCell>
        <mxCell id="c4MaFaqeXAwnwck2cTiM-6" value="Asignación de la persona registrada&amp;nbsp;" style="ellipse;whiteSpace=wrap;html=1;" parent="6It77lHutjvIm_W-3JPP-1" vertex="1">
          <mxGeometry x="400" y="-80" width="120" height="60" as="geometry" />
        </mxCell>
        <mxCell id="c4MaFaqeXAwnwck2cTiM-16" style="edgeStyle=orthogonalEdgeStyle;rounded=0;orthogonalLoop=1;jettySize=auto;html=1;entryX=1;entryY=0.5;entryDx=0;entryDy=0;exitX=0.5;exitY=0;exitDx=0;exitDy=0;exitPerimeter=0;" parent="6It77lHutjvIm_W-3JPP-1" source="c4MaFaqeXAwnwck2cTiM-7" target="c4MaFaqeXAwnwck2cTiM-5" edge="1">
          <mxGeometry relative="1" as="geometry" />
        </mxCell>
        <mxCell id="c4MaFaqeXAwnwck2cTiM-18" style="edgeStyle=orthogonalEdgeStyle;rounded=0;orthogonalLoop=1;jettySize=auto;html=1;entryX=1;entryY=0.5;entryDx=0;entryDy=0;" parent="6It77lHutjvIm_W-3JPP-1" source="c4MaFaqeXAwnwck2cTiM-7" target="c4MaFaqeXAwnwck2cTiM-6" edge="1">
          <mxGeometry relative="1" as="geometry" />
        </mxCell>
        <mxCell id="c4MaFaqeXAwnwck2cTiM-7" value="Actor" style="shape=umlActor;verticalLabelPosition=bottom;verticalAlign=top;html=1;outlineConnect=0;" parent="6It77lHutjvIm_W-3JPP-1" vertex="1">
          <mxGeometry x="640" y="-50" width="40" height="70" as="geometry" />
        </mxCell>
        <mxCell id="c4MaFaqeXAwnwck2cTiM-24" style="edgeStyle=orthogonalEdgeStyle;rounded=0;orthogonalLoop=1;jettySize=auto;html=1;" parent="6It77lHutjvIm_W-3JPP-1" source="c4MaFaqeXAwnwck2cTiM-8" target="c4MaFaqeXAwnwck2cTiM-10" edge="1">
          <mxGeometry relative="1" as="geometry" />
        </mxCell>
        <mxCell id="c4MaFaqeXAwnwck2cTiM-8" value="Actor" style="shape=umlActor;verticalLabelPosition=bottom;verticalAlign=top;html=1;outlineConnect=0;" parent="6It77lHutjvIm_W-3JPP-1" vertex="1">
          <mxGeometry x="280" y="140" width="30" height="60" as="geometry" />
        </mxCell>
        <mxCell id="c4MaFaqeXAwnwck2cTiM-9" value="Registrar a los usuarios&amp;nbsp;" style="ellipse;whiteSpace=wrap;html=1;" parent="6It77lHutjvIm_W-3JPP-1" vertex="1">
          <mxGeometry x="440" y="45" width="100" height="60" as="geometry" />
        </mxCell>
        <mxCell id="c4MaFaqeXAwnwck2cTiM-10" value="Gestión de usuarios&amp;nbsp;" style="rounded=1;whiteSpace=wrap;html=1;" parent="6It77lHutjvIm_W-3JPP-1" vertex="1">
          <mxGeometry x="430" y="160" width="150" height="40" as="geometry" />
        </mxCell>
        <mxCell id="c4MaFaqeXAwnwck2cTiM-21" style="edgeStyle=orthogonalEdgeStyle;rounded=0;orthogonalLoop=1;jettySize=auto;html=1;" parent="6It77lHutjvIm_W-3JPP-1" source="c4MaFaqeXAwnwck2cTiM-11" edge="1">
          <mxGeometry relative="1" as="geometry">
            <mxPoint x="110" y="15" as="targetPoint" />
          </mxGeometry>
        </mxCell>
        <mxCell id="c4MaFaqeXAwnwck2cTiM-11" value="Personas asignadas&amp;nbsp;" style="ellipse;whiteSpace=wrap;html=1;" parent="6It77lHutjvIm_W-3JPP-1" vertex="1">
          <mxGeometry x="235" y="-10" width="120" height="50" as="geometry" />
        </mxCell>
        <mxCell id="c4MaFaqeXAwnwck2cTiM-14" value="" style="endArrow=classic;html=1;rounded=0;exitX=1;exitY=0.5;exitDx=0;exitDy=0;entryX=0;entryY=0.5;entryDx=0;entryDy=0;" parent="6It77lHutjvIm_W-3JPP-1" source="c4MaFaqeXAwnwck2cTiM-4" target="c4MaFaqeXAwnwck2cTiM-5" edge="1">
          <mxGeometry width="50" height="50" relative="1" as="geometry">
            <mxPoint x="390" y="20" as="sourcePoint" />
            <mxPoint x="440" y="-30" as="targetPoint" />
          </mxGeometry>
        </mxCell>
        <mxCell id="c4MaFaqeXAwnwck2cTiM-22" value="" style="endArrow=classic;html=1;rounded=0;entryX=1;entryY=0.5;entryDx=0;entryDy=0;exitX=0;exitY=1;exitDx=0;exitDy=0;" parent="6It77lHutjvIm_W-3JPP-1" source="c4MaFaqeXAwnwck2cTiM-6" target="c4MaFaqeXAwnwck2cTiM-11" edge="1">
          <mxGeometry width="50" height="50" relative="1" as="geometry">
            <mxPoint x="390" y="20" as="sourcePoint" />
            <mxPoint x="440" y="-30" as="targetPoint" />
          </mxGeometry>
        </mxCell>
        <mxCell id="c4MaFaqeXAwnwck2cTiM-23" value="" style="endArrow=classic;html=1;rounded=0;exitX=0.5;exitY=0;exitDx=0;exitDy=0;entryX=0.558;entryY=1.076;entryDx=0;entryDy=0;entryPerimeter=0;" parent="6It77lHutjvIm_W-3JPP-1" source="c4MaFaqeXAwnwck2cTiM-9" target="c4MaFaqeXAwnwck2cTiM-6" edge="1">
          <mxGeometry width="50" height="50" relative="1" as="geometry">
            <mxPoint x="390" y="20" as="sourcePoint" />
            <mxPoint x="440" y="-30" as="targetPoint" />
          </mxGeometry>
        </mxCell>
        <mxCell id="c4MaFaqeXAwnwck2cTiM-27" value="Personas que se registran&amp;nbsp;" style="rounded=0;whiteSpace=wrap;html=1;" parent="6It77lHutjvIm_W-3JPP-1" vertex="1">
          <mxGeometry x="30" y="57.5" width="110" height="35" as="geometry" />
        </mxCell>
        <mxCell id="c4MaFaqeXAwnwck2cTiM-28" value="Persona que administra sistema" style="rounded=0;whiteSpace=wrap;html=1;" parent="6It77lHutjvIm_W-3JPP-1" vertex="1">
          <mxGeometry x="245" y="240" width="110" height="35" as="geometry" />
        </mxCell>
        <mxCell id="c4MaFaqeXAwnwck2cTiM-29" value="Administrador de Registros" style="rounded=0;whiteSpace=wrap;html=1;" parent="6It77lHutjvIm_W-3JPP-1" vertex="1">
          <mxGeometry x="605" y="60" width="110" height="35" as="geometry" />
        </mxCell>
        <mxCell id="c4MaFaqeXAwnwck2cTiM-30" value="Diagrama de caso de uso&amp;nbsp;" style="rounded=1;whiteSpace=wrap;html=1;" parent="6It77lHutjvIm_W-3JPP-1" vertex="1">
          <mxGeometry x="80" y="-280" width="300" height="30" as="geometry" />
        </mxCell>
      </root>
    </mxGraphModel>
  </diagram>
  <diagram id="pXFBHpKG09jvydWgCGDy" name="Page-3">
    <mxGraphModel dx="2585" dy="3376" grid="1" gridSize="10" guides="1" tooltips="1" connect="1" arrows="1" fold="1" page="1" pageScale="1" pageWidth="827" pageHeight="1169" math="0" shadow="0">
      <root>
        <mxCell id="OwFFSm4Qm7DGAH6gPMUN-0" />
        <mxCell id="OwFFSm4Qm7DGAH6gPMUN-1" parent="OwFFSm4Qm7DGAH6gPMUN-0" />
        <mxCell id="ayXczSG2U9EwtpDL-ifK-9" style="edgeStyle=orthogonalEdgeStyle;rounded=0;orthogonalLoop=1;jettySize=auto;html=1;entryX=0.008;entryY=0.125;entryDx=0;entryDy=0;entryPerimeter=0;" parent="OwFFSm4Qm7DGAH6gPMUN-1" source="ayXczSG2U9EwtpDL-ifK-1" target="ayXczSG2U9EwtpDL-ifK-6" edge="1">
          <mxGeometry relative="1" as="geometry">
            <mxPoint x="290" y="-1605" as="targetPoint" />
          </mxGeometry>
        </mxCell>
        <mxCell id="ayXczSG2U9EwtpDL-ifK-1" value="" style="strokeWidth=2;html=1;shape=mxgraph.flowchart.start_2;whiteSpace=wrap;" parent="OwFFSm4Qm7DGAH6gPMUN-1" vertex="1">
          <mxGeometry x="100" y="-1630" width="50" height="50" as="geometry" />
        </mxCell>
        <mxCell id="ayXczSG2U9EwtpDL-ifK-12" style="edgeStyle=orthogonalEdgeStyle;rounded=0;orthogonalLoop=1;jettySize=auto;html=1;entryX=0.5;entryY=0;entryDx=0;entryDy=0;entryPerimeter=0;" parent="OwFFSm4Qm7DGAH6gPMUN-1" source="ayXczSG2U9EwtpDL-ifK-2" target="ayXczSG2U9EwtpDL-ifK-11" edge="1">
          <mxGeometry relative="1" as="geometry" />
        </mxCell>
        <mxCell id="ayXczSG2U9EwtpDL-ifK-2" value="Autentificación " style="swimlane;childLayout=stackLayout;horizontal=1;startSize=30;horizontalStack=0;rounded=1;fontSize=14;fontStyle=0;strokeWidth=2;resizeParent=0;resizeLast=1;shadow=0;dashed=0;align=center;arcSize=35;" parent="OwFFSm4Qm7DGAH6gPMUN-1" vertex="1">
          <mxGeometry x="310" y="-1640" width="186" height="120" as="geometry" />
        </mxCell>
        <mxCell id="ayXczSG2U9EwtpDL-ifK-6" value="Registro / usuario -pass&lt;br&gt;Hacer / validar ingreso&lt;br&gt;salida / mensaje de exito o error&amp;nbsp;" style="text;html=1;align=center;verticalAlign=middle;resizable=0;points=[];autosize=1;strokeColor=none;fillColor=none;" parent="ayXczSG2U9EwtpDL-ifK-2" vertex="1">
          <mxGeometry y="30" width="186" height="90" as="geometry" />
        </mxCell>
        <mxCell id="9HgRtHBMs04TFnljGEgJ-0" style="edgeStyle=orthogonalEdgeStyle;rounded=0;orthogonalLoop=1;jettySize=auto;html=1;entryX=1.022;entryY=0.444;entryDx=0;entryDy=0;entryPerimeter=0;" edge="1" parent="OwFFSm4Qm7DGAH6gPMUN-1" source="ayXczSG2U9EwtpDL-ifK-4" target="ayXczSG2U9EwtpDL-ifK-6">
          <mxGeometry relative="1" as="geometry" />
        </mxCell>
        <mxCell id="ayXczSG2U9EwtpDL-ifK-4" value="Servicio de autentificación de github,&amp;nbsp;azure student y&amp;nbsp;azure devops.&amp;nbsp;" style="shape=note;size=20;whiteSpace=wrap;html=1;" parent="OwFFSm4Qm7DGAH6gPMUN-1" vertex="1">
          <mxGeometry x="620" y="-1620" width="100" height="100" as="geometry" />
        </mxCell>
        <mxCell id="ayXczSG2U9EwtpDL-ifK-7" value="Sistema de Registro &lt;br&gt;a la pagina webs&amp;nbsp;&lt;br&gt;" style="text;html=1;align=center;verticalAlign=middle;resizable=0;points=[];autosize=1;strokeColor=none;fillColor=none;" parent="OwFFSm4Qm7DGAH6gPMUN-1" vertex="1">
          <mxGeometry x="60" y="-1690" width="120" height="30" as="geometry" />
        </mxCell>
        <mxCell id="ayXczSG2U9EwtpDL-ifK-8" value="Ingreso / Registro de requerimientos&amp;nbsp;" style="text;html=1;align=center;verticalAlign=middle;resizable=0;points=[];autosize=1;strokeColor=none;fillColor=none;" parent="OwFFSm4Qm7DGAH6gPMUN-1" vertex="1">
          <mxGeometry x="15" y="-1560" width="210" height="20" as="geometry" />
        </mxCell>
        <mxCell id="9HgRtHBMs04TFnljGEgJ-2" style="edgeStyle=orthogonalEdgeStyle;rounded=0;orthogonalLoop=1;jettySize=auto;html=1;exitX=1;exitY=0.5;exitDx=0;exitDy=0;exitPerimeter=0;" edge="1" parent="OwFFSm4Qm7DGAH6gPMUN-1" source="ayXczSG2U9EwtpDL-ifK-11">
          <mxGeometry relative="1" as="geometry">
            <mxPoint x="510" y="-1570" as="targetPoint" />
          </mxGeometry>
        </mxCell>
        <mxCell id="9HgRtHBMs04TFnljGEgJ-3" value="NO" style="edgeLabel;html=1;align=center;verticalAlign=middle;resizable=0;points=[];" vertex="1" connectable="0" parent="9HgRtHBMs04TFnljGEgJ-2">
          <mxGeometry x="-0.139" y="-3" relative="1" as="geometry">
            <mxPoint as="offset" />
          </mxGeometry>
        </mxCell>
        <mxCell id="ayXczSG2U9EwtpDL-ifK-11" value="" style="strokeWidth=2;html=1;shape=mxgraph.flowchart.decision;whiteSpace=wrap;" parent="OwFFSm4Qm7DGAH6gPMUN-1" vertex="1">
          <mxGeometry x="373" y="-1480" width="60" height="50" as="geometry" />
        </mxCell>
        <mxCell id="9HgRtHBMs04TFnljGEgJ-9" style="edgeStyle=orthogonalEdgeStyle;rounded=0;orthogonalLoop=1;jettySize=auto;html=1;entryX=0.5;entryY=0;entryDx=0;entryDy=0;" edge="1" parent="OwFFSm4Qm7DGAH6gPMUN-1" source="ayXczSG2U9EwtpDL-ifK-13" target="9HgRtHBMs04TFnljGEgJ-7">
          <mxGeometry relative="1" as="geometry" />
        </mxCell>
        <mxCell id="ayXczSG2U9EwtpDL-ifK-13" value="Portal web " style="swimlane;childLayout=stackLayout;horizontal=1;startSize=30;horizontalStack=0;rounded=1;fontSize=14;fontStyle=0;strokeWidth=2;resizeParent=0;resizeLast=1;shadow=0;dashed=0;align=center;arcSize=25;" parent="OwFFSm4Qm7DGAH6gPMUN-1" vertex="1">
          <mxGeometry y="-1310" width="190" height="120" as="geometry" />
        </mxCell>
        <mxCell id="ayXczSG2U9EwtpDL-ifK-14" value="entrada / usuario autorizado &#xa;hacer / Registra requerimiento &#xa;salida / Mensaje de éxito o error " style="align=left;strokeColor=none;fillColor=none;spacingLeft=4;fontSize=12;verticalAlign=top;resizable=0;rotatable=0;part=1;" parent="ayXczSG2U9EwtpDL-ifK-13" vertex="1">
          <mxGeometry y="30" width="190" height="90" as="geometry" />
        </mxCell>
        <mxCell id="ayXczSG2U9EwtpDL-ifK-15" value="&lt;font style=&quot;font-size: 18px&quot;&gt;Diagrama de despliegue&amp;nbsp;&lt;/font&gt;" style="text;html=1;align=center;verticalAlign=middle;resizable=0;points=[];autosize=1;strokeColor=none;fillColor=none;" parent="OwFFSm4Qm7DGAH6gPMUN-1" vertex="1">
          <mxGeometry x="60" y="-1790" width="220" height="20" as="geometry" />
        </mxCell>
        <mxCell id="9HgRtHBMs04TFnljGEgJ-4" value="APP MOVIL " style="swimlane;childLayout=stackLayout;horizontal=1;startSize=30;horizontalStack=0;rounded=1;fontSize=14;fontStyle=0;strokeWidth=2;resizeParent=0;resizeLast=1;shadow=0;dashed=0;align=center;arcSize=25;" vertex="1" parent="OwFFSm4Qm7DGAH6gPMUN-1">
          <mxGeometry x="350" y="-1310" width="190" height="120" as="geometry" />
        </mxCell>
        <mxCell id="9HgRtHBMs04TFnljGEgJ-5" value="entrada / usuario autorizado &#xa;hacer / Registra requerimiento &#xa;salida / Mensaje de éxito o error " style="align=left;strokeColor=none;fillColor=none;spacingLeft=4;fontSize=12;verticalAlign=top;resizable=0;rotatable=0;part=1;" vertex="1" parent="9HgRtHBMs04TFnljGEgJ-4">
          <mxGeometry y="30" width="190" height="90" as="geometry" />
        </mxCell>
        <mxCell id="9HgRtHBMs04TFnljGEgJ-28" style="edgeStyle=orthogonalEdgeStyle;rounded=0;orthogonalLoop=1;jettySize=auto;html=1;" edge="1" parent="OwFFSm4Qm7DGAH6gPMUN-1" source="9HgRtHBMs04TFnljGEgJ-7" target="9HgRtHBMs04TFnljGEgJ-25">
          <mxGeometry relative="1" as="geometry">
            <Array as="points">
              <mxPoint x="271" y="-880" />
            </Array>
          </mxGeometry>
        </mxCell>
        <mxCell id="9HgRtHBMs04TFnljGEgJ-7" value="BD" style="swimlane;childLayout=stackLayout;horizontal=1;startSize=30;horizontalStack=0;rounded=1;fontSize=14;fontStyle=0;strokeWidth=2;resizeParent=0;resizeLast=1;shadow=0;dashed=0;align=center;arcSize=25;" vertex="1" parent="OwFFSm4Qm7DGAH6gPMUN-1">
          <mxGeometry x="176" y="-1120" width="190" height="120" as="geometry" />
        </mxCell>
        <mxCell id="9HgRtHBMs04TFnljGEgJ-8" value="entrada / requerimientos  &#xa;hacer / almacenar en BD&#xa;salida / éxito o error " style="align=left;strokeColor=none;fillColor=none;spacingLeft=4;fontSize=12;verticalAlign=top;resizable=0;rotatable=0;part=1;" vertex="1" parent="9HgRtHBMs04TFnljGEgJ-7">
          <mxGeometry y="30" width="190" height="90" as="geometry" />
        </mxCell>
        <mxCell id="9HgRtHBMs04TFnljGEgJ-11" value="" style="endArrow=none;html=1;rounded=0;exitX=1.005;exitY=0.195;exitDx=0;exitDy=0;exitPerimeter=0;entryX=0.078;entryY=1.001;entryDx=0;entryDy=0;entryPerimeter=0;" edge="1" parent="OwFFSm4Qm7DGAH6gPMUN-1" source="9HgRtHBMs04TFnljGEgJ-7" target="9HgRtHBMs04TFnljGEgJ-5">
          <mxGeometry width="50" height="50" relative="1" as="geometry">
            <mxPoint x="260" y="-1150" as="sourcePoint" />
            <mxPoint x="310" y="-1200" as="targetPoint" />
          </mxGeometry>
        </mxCell>
        <mxCell id="9HgRtHBMs04TFnljGEgJ-16" value="" style="endArrow=none;html=1;rounded=0;" edge="1" parent="OwFFSm4Qm7DGAH6gPMUN-1">
          <mxGeometry width="50" height="50" relative="1" as="geometry">
            <mxPoint x="97" y="-1380" as="sourcePoint" />
            <mxPoint x="437" y="-1380" as="targetPoint" />
          </mxGeometry>
        </mxCell>
        <mxCell id="9HgRtHBMs04TFnljGEgJ-21" value="SI" style="edgeLabel;html=1;align=center;verticalAlign=middle;resizable=0;points=[];" vertex="1" connectable="0" parent="9HgRtHBMs04TFnljGEgJ-16">
          <mxGeometry x="-0.0461" relative="1" as="geometry">
            <mxPoint as="offset" />
          </mxGeometry>
        </mxCell>
        <mxCell id="9HgRtHBMs04TFnljGEgJ-17" value="" style="endArrow=classic;html=1;rounded=0;entryX=0.5;entryY=0;entryDx=0;entryDy=0;" edge="1" parent="OwFFSm4Qm7DGAH6gPMUN-1" target="ayXczSG2U9EwtpDL-ifK-13">
          <mxGeometry width="50" height="50" relative="1" as="geometry">
            <mxPoint x="97" y="-1380" as="sourcePoint" />
            <mxPoint x="307" y="-1410" as="targetPoint" />
          </mxGeometry>
        </mxCell>
        <mxCell id="9HgRtHBMs04TFnljGEgJ-18" value="" style="endArrow=classic;html=1;rounded=0;entryX=0.5;entryY=0;entryDx=0;entryDy=0;" edge="1" parent="OwFFSm4Qm7DGAH6gPMUN-1" target="9HgRtHBMs04TFnljGEgJ-4">
          <mxGeometry width="50" height="50" relative="1" as="geometry">
            <mxPoint x="437" y="-1380" as="sourcePoint" />
            <mxPoint x="437" y="-1310" as="targetPoint" />
          </mxGeometry>
        </mxCell>
        <mxCell id="9HgRtHBMs04TFnljGEgJ-23" value="" style="endArrow=none;html=1;rounded=0;entryX=0.5;entryY=1;entryDx=0;entryDy=0;entryPerimeter=0;" edge="1" parent="OwFFSm4Qm7DGAH6gPMUN-1" target="ayXczSG2U9EwtpDL-ifK-11">
          <mxGeometry width="50" height="50" relative="1" as="geometry">
            <mxPoint x="403" y="-1380" as="sourcePoint" />
            <mxPoint x="430" y="-1460" as="targetPoint" />
          </mxGeometry>
        </mxCell>
        <mxCell id="9HgRtHBMs04TFnljGEgJ-24" value="&lt;span style=&quot;color: rgb(77 , 81 , 86) ; font-family: &amp;#34;arial&amp;#34; , sans-serif ; font-size: 14px ; text-align: left ; background-color: rgb(255 , 255 , 255)&quot;&gt;¿&lt;/span&gt;Es conforme?" style="text;html=1;align=center;verticalAlign=middle;resizable=0;points=[];autosize=1;strokeColor=none;fillColor=none;" vertex="1" parent="OwFFSm4Qm7DGAH6gPMUN-1">
          <mxGeometry x="350" y="-1410" width="100" height="20" as="geometry" />
        </mxCell>
        <mxCell id="9HgRtHBMs04TFnljGEgJ-25" value="" style="strokeWidth=2;html=1;shape=mxgraph.flowchart.start_2;whiteSpace=wrap;" vertex="1" parent="OwFFSm4Qm7DGAH6gPMUN-1">
          <mxGeometry x="560" y="-900" width="40" height="40" as="geometry" />
        </mxCell>
        <mxCell id="9HgRtHBMs04TFnljGEgJ-27" value="Requerimiento registrado&amp;nbsp;" style="text;html=1;align=center;verticalAlign=middle;resizable=0;points=[];autosize=1;strokeColor=none;fillColor=none;" vertex="1" parent="OwFFSm4Qm7DGAH6gPMUN-1">
          <mxGeometry x="505" y="-840" width="150" height="20" as="geometry" />
        </mxCell>
      </root>
    </mxGraphModel>
  </diagram>
</mxfile>
